<svg width="22" height="25" viewBox="0 0 22 25" fill="none" xmlns="http://www.w3.org/2000/svg">
<path d="M2.44444 25C1.77222 25 1.19676 24.7552 0.718056 24.2656C0.239352 23.776 0 23.1875 0 22.5V5C0 4.3125 0.239352 3.72396 0.718056 3.23438C1.19676 2.74479 1.77222 2.5 2.44444 2.5H3.66667V0H6.11111V2.5H15.8889V0H18.3333V2.5H19.5556C20.2278 2.5 20.8032 2.74479 21.2819 3.23438C21.7606 3.72396 22 4.3125 22 5V22.5C22 23.1875 21.7606 23.776 21.2819 24.2656C20.8032 24.7552 20.2278 25 19.5556 25H2.44444ZM2.44444 22.5H19.5556V10H2.44444V22.5ZM2.44444 7.5H19.5556V5H2.44444V7.5Z" fill="#C48B8B"/>
</svg>
