<svg width="18" height="18" viewBox="0 0 18 18" fill="none" xmlns="http://www.w3.org/2000/svg">
<path d="M5.4875 17.2875C4.39583 16.8125 3.44583 16.1708 2.6375 15.3625C1.82917 14.5542 1.1875 13.6042 0.7125 12.5125C0.2375 11.4208 0 10.25 0 9C0 7.75 0.2375 6.57917 0.7125 5.4875C1.1875 4.39583 1.82917 3.44583 2.6375 2.6375C3.44583 1.82917 4.39583 1.1875 5.4875 0.7125C6.57917 0.2375 7.75 0 9 0C10.25 0 11.4208 0.2375 12.5125 0.7125C13.6042 1.1875 14.5542 1.82917 15.3625 2.6375C16.1708 3.44583 16.8125 4.39583 17.2875 5.4875C17.7625 6.57917 18 7.75 18 9C18 10.25 17.7625 11.4208 17.2875 12.5125C16.8125 13.6042 16.1708 14.5542 15.3625 15.3625C14.5542 16.1708 13.6042 16.8125 12.5125 17.2875C11.4208 17.7625 10.25 18 9 18C7.75 18 6.57917 17.7625 5.4875 17.2875ZM11.8 13.2L13.2 11.8L10 8.6V4H8V9.4L11.8 13.2ZM9 16C10.95 16 12.6042 15.3208 13.9625 13.9625C15.3208 12.6042 16 10.95 16 9C16 7.05 15.3208 5.39583 13.9625 4.0375C12.6042 2.67917 10.95 2 9 2C7.05 2 5.39583 2.67917 4.0375 4.0375C2.67917 5.39583 2 7.05 2 9C2 10.95 2.67917 12.6042 4.0375 13.9625C5.39583 15.3208 7.05 16 9 16Z" fill="#C48B8B"/>
</svg>
